<?xml version="1.0" encoding="UTF-8"?>
<svg id="katman_2" xmlns="http://www.w3.org/2000/svg" viewBox="0 0 248.91 241.72">
  <defs>
    <style>
      .cls-1 {
        fill: #fff;
      }
    </style>
  </defs>
  <g id="katman_1">
    <g id="JZG6d7">
      <g>
        <path class="cls-1" d="M248.7,58.64c0,.16-.01.32,0,.48.94,11.18-1.6,22.15-1.86,33.25-.24,10-2.37,19.67-3.76,29.49-1.22,8.64-4.13,16.73-6.41,25.03-2.8,10.16-7.33,19.49-12.47,28.56-7.29,12.88-16.71,23.89-28.1,33.14-6.82,5.54-14.11,10.42-21.98,14.29-5.1,2.51-10.31,4.79-15.52,7.05-3.07,1.33-5.5-.97-8.12-1.94-2.55-.94-4.95-2.3-7.48-3.29-1.98-.78-3.52-.32-5.13,1.47-4.48,4.97-9.23,9.68-13.99,14.38-.74.73-2.09,1.25-3.12,1.18-5.35-.37-10.72-.79-16.03-1.54-4.3-.61-8.6-1.47-12.77-2.67-4.77-1.38-9.51-2.98-14.06-4.98-8.11-3.55-15.48-8.43-22.32-14.11-7.85-6.51-14.58-14.08-20.38-22.52-2.46-3.57-5.17-7-7.23-10.8-4.17-7.69-8.11-15.51-11.89-23.4-2.62-5.47-4.85-11.14-7.16-16.77-1.02-2.48-1.81-5.06-2.68-7.6-2.04-5.98-4.11-11.95-6.03-17.98-.33-1.02-.31-2.49.18-3.4,3.94-7.3,7.88-14.59,13.49-20.79,5.24-5.81,10.74-11.35,17.25-15.63,6.84-4.5,13.88-8.72,21.02-12.72,3.45-1.93,7.27-3.22,11.02-4.5,2.1-.72,2.85-1.96,2.86-4.02.01-5.73.21-11.46,0-17.18-.12-3.53,1.25-5.92,3.7-8.25,6.82-6.49,14.41-11.85,22.48-16.51,3.43-1.98,7.11-3.57,10.81-4.98,5.66-2.17,11.41-4.12,17.17-6.01,2.37-.78,4.84-1.25,7.29-1.71,13.83-2.62,27.72-4.89,41.81-2.87,7.94,1.13,15.91,2.45,23.66,4.48,8.7,2.28,17.14,5.47,25.26,9.56,10.01,5.03,19.06,11.32,27,19.29,2.18,2.19,3.37,4.93,3.41,8.08.06,5.49.02,10.98.02,16.47h.04ZM239.41,68.63c-.08,0-.17,0-.25,0,0-8.67.09-17.34-.09-26.01-.03-1.39-.91-3.15-1.96-4.05-4.09-3.53-8.26-7.02-12.7-10.07-3.92-2.69-8.1-5.07-12.4-7.07-4.79-2.23-9.8-4.01-14.79-5.75-3.52-1.22-7.14-2.27-10.79-2.99-5.5-1.09-11.14-1.54-16.6-2.78-6.42-1.45-12.84-1.69-19.31-1.07-4.03.38-8.03,1.12-12.02,1.81-4.68.81-9.43,1.44-14,2.71-5.38,1.49-10.57,3.68-15.9,5.38-6.9,2.2-13.11,5.83-19.12,9.75-4.31,2.81-8.15,6.37-12.22,9.55-2.06,1.61-2.95,3.58-3.04,6.32-.62,20.47.67,40.86,2.32,61.23.12,1.46-.22,2.99-.5,4.45-.32,1.66-1.53,2.28-3.1,2.33-2.67.1-4.42-1.69-4.64-4.85-.78-11.1-1.55-22.21-2.29-33.31-.13-1.92-.97-2.94-2.84-2.33-2.36.77-4.76,1.56-6.92,2.76-5.85,3.27-11.92,6.31-17.28,10.29-6.26,4.65-12.27,9.81-17.63,15.49-4.16,4.4-7.09,9.98-10.69,14.95-1.32,1.82-1.46,3.62-.76,5.61,2.51,7.07,4.9,14.19,7.6,21.19,2.56,6.62,5.28,13.19,8.24,19.64,4.23,9.2,9.24,17.93,14.86,26.37,5.55,8.32,12.45,15.29,19.5,22.1,5.93,5.73,12.84,10.29,20.49,13.47,4.81,2,9.56,4.42,14.57,5.62,6.95,1.65,14.12,2.42,21.22,3.35,1.32.17,3.1-.24,4.1-1.09,2.82-2.38,5.5-4.97,7.94-7.75,4.02-4.58,3.85-4.56-1.16-8.11-7.56-5.36-14.81-11.15-21.14-17.99-5.83-6.3-10.95-13.18-15.43-20.58-4.67-7.73-8.41-15.88-11.7-24.28-.66-1.69-1.58-3.49-1.5-5.2.07-1.51,1.09-3.29,2.23-4.32.71-.64,2.74-.55,3.65.05,1.21.8,2.16,2.3,2.79,3.7,2.18,4.9,4,9.97,6.28,14.82,5.84,12.43,13.59,23.49,23.39,33.04,6.39,6.23,13.27,11.77,21.04,16.1,4.56,2.54,9.16,5.01,13.78,7.44,1.72.9,3.5,2.07,5.34,2.24,1.6.15,3.34-.86,4.98-1.46,7.59-2.76,14.56-6.84,21.22-11.34,10.73-7.25,20.08-16.16,27.75-26.72,6.12-8.43,11.05-17.55,15.12-27.25,3.21-7.65,5.07-15.65,7.31-23.54,1.74-6.15,2.79-12.52,3.84-18.85,1.04-6.26,2-12.57,2.44-18.89.56-8.01.57-16.06.81-24.09Z"/>
        <path class="cls-1" d="M203.3,141.33c-.64,15.03-8.22,25.43-20.3,32.8-9.59,5.85-20.07,8.07-31.16,6.6-4.61-.61-9.34-1.27-13.65-2.91-9.07-3.46-16.65-9.17-21.96-17.67-4.27-6.85-6.25-14.35-5.9-22.42.25-5.85,3.92-7.75,9-4.97,15.59,8.51,32.16,10.79,49.58,8.37,6.62-.92,12.96-2.71,19.19-4.98,2.03-.74,3.86-2.04,5.84-2.94,1.4-.64,2.87-1.3,4.37-1.54,2.83-.44,4.46.99,4.71,3.88.17,1.98.2,3.97.29,5.79ZM159.68,172.58c5.93.3,15.9-3.17,22.7-8.54,5.71-4.5,9.8-10.12,11.63-17.34.46-1.83-.22-2.61-1.95-2.52-.75.04-1.51.32-2.24.57-3.31,1.13-6.54,2.73-9.93,3.37-19.22,3.6-38.27,3.92-56.82-3.7-.81-.33-2.24-.33-2.76.18-.54.53-.74,2.04-.4,2.81,1.46,3.3,2.74,6.83,4.88,9.66,8.06,10.68,19.11,15.27,34.88,15.51Z"/>
        <path class="cls-1" d="M194.71,64.2c9.13-.35,16.92,3.09,23.66,9.07,1.85,1.64,3.27,3.84,4.66,5.93,1.12,1.7.91,3.53-.66,4.95-1.79,1.61-4.31,1.53-6.18-.22-2.29-2.14-4.28-4.69-6.8-6.49-5.42-3.87-11.54-5.34-18.17-4.42-7.13,1-12.98,4.23-17.35,10.14-.09.13-.19.26-.29.37-1.88,2.09-4.67,2.53-6.5,1.03-1.45-1.19-1.74-4.41-.35-6.4,4-5.72,9.2-9.91,15.88-11.86,3.92-1.15,7.96-1.88,11.95-2.8.05.23.09.46.14.68Z"/>
        <path class="cls-1" d="M119.36,63.57c10.96.69,19.98,4.76,26.79,13.48,1.18,1.51,2.66,3.09,1.93,5.34-1.1,3.37-4.67,4.08-7.37,1.5-2.26-2.16-4.26-4.72-6.78-6.48-5.58-3.9-11.82-5.43-18.64-4.28-6.93,1.17-12.61,4.35-16.92,10.04-1.37,1.81-3.34,2.65-5.39,1.76-1.08-.47-2.39-1.96-2.41-3.01-.02-1.6.66-3.47,1.63-4.76,4.07-5.44,9.24-9.43,15.87-11.09,3.74-.94,7.53-1.67,11.3-2.5Z"/>
        <path class="cls-1" d="M75.9,131.71c-2.49,0-3.56-1.07-3.61-3.59-.05-2.43,1.52-4.31,3.66-4.38,2.1-.07,4.2,2.08,4.16,4.26-.04,2.31-1.62,3.71-4.21,3.71Z"/>
      </g>
    </g>
  </g>
</svg>