<?xml version="1.0" encoding="UTF-8"?>
<svg id="katman_2" xmlns="http://www.w3.org/2000/svg" viewBox="0 0 212.49 212.49">
  <defs>
    <style>
      .cls-1 {
        fill: #fff;
      }
    </style>
  </defs>
  <g id="katman_1">
    <g id="yRnWWE">
      <g>
        <path class="cls-1" d="M212.49,49.85c-.16,1.23-.32,2.45-.47,3.68-.14,1.09-.16,2.22-.45,3.27-.57,2.06-2.49,3.3-4.77,3.25-1.85-.04-3.47-1.34-3.94-3.4-.23-.99-.26-2.06-.18-3.08.99-13.14-.01-26.12-2.77-39-.35-1.62-1.36-1.82-2.6-2.08-23.24-4.92-46.22-3.78-68.93,3.06-18.78,5.65-35.73,14.81-51.13,26.91-1.25.98-2.47,2.02-3.81,2.86-2.21,1.4-4.79.98-6.15-.86-1.52-2.06-1.4-4.63.58-6.36,2.39-2.09,4.91-4.06,7.47-5.94,20.48-15.06,43.04-25.43,68.19-29.73,6.12-1.05,12.36-1.39,18.54-2.06,1.03-.11,2.05-.25,3.08-.37,2.63,0,5.26,0,7.89,0,.88.13,1.76.33,2.65.36,9.5.31,18.82,1.88,28.06,4.01,2.32.54,3.85,1.81,4.3,4.2,1.07,5.7,2.23,11.38,3.15,17.1.62,3.87.88,7.81,1.3,11.71v12.46Z"/>
        <path class="cls-1" d="M104.55,114.95c8.26,1.74,16.18,3.41,24.09,5.08.34.07.68.13,1.01.22,3.11.82,4.75,3.06,4.17,5.68-.61,2.76-3.09,4.16-6.29,3.5-9.89-2.06-19.76-4.17-29.66-6.17-.78-.16-1.98.12-2.53.66-7.26,7.13-14.44,14.34-21.63,21.54-.24.24-.43.52-.83,1.03.71.23,1.24.46,1.79.57,7.17,1.53,14.35,3.03,21.52,4.55.88.19,1.77.35,2.61.65,2.51.87,3.75,3.04,3.23,5.52-.49,2.36-2.72,3.97-5.34,3.49-5.24-.96-10.44-2.11-15.65-3.2-4.81-1-9.62-1.98-14.41-3.07-1.53-.35-2.55,0-3.64,1.13-5.9,6.04-11.88,12-17.83,18-.43.43-.82.91-1.65,1.85,3.56,2.19,6.81,4.5,10.33,6.31,8.63,4.44,17.93,5.9,27.57,5.55,9.01-.32,17.67-2.28,26.12-5.33,1.04-.38,2.07-.79,3.14-1.05,2.56-.62,4.93.5,5.64,2.59.9,2.64-.08,5.09-2.71,6.16-2.82,1.14-5.69,2.16-8.6,3.01-8.86,2.61-17.87,4.25-27.17,4.04-14.71-.33-28.01-4.58-39.55-13.89-.43-.34-.89-.65-1.49-1.09-.6.56-1.2,1.11-1.77,1.68-8.81,8.81-17.62,17.62-26.43,26.43-1.42,1.42-2.94,2.53-5.13,1.94-3.03-.81-4.4-4.02-2.77-6.69.5-.81,1.19-1.52,1.87-2.21,8.65-8.67,17.31-17.34,26-25.98.53-.53,1.27-.86,1.66-1.12-2.82-4.42-5.56-8.16-7.72-12.22-6.19-11.63-8.17-24.15-7.02-37.18,1.8-20.32,9.7-38.38,21.27-54.85,5.15-7.34,11.27-13.99,16.97-20.94,1.24-1.51,2.75-2.49,4.86-2.16,3.19.5,4.92,3.74,3.37,6.56-.52.95-1.29,1.8-2.04,2.6-10.02,10.56-18.61,22.15-25.04,35.24-6.39,13-10.59,26.62-10.34,41.28.19,11.34,3.22,21.85,9.92,31.15.53.73,1.1,1.43,1.66,2.13.17.21.39.37.8.75,2.48-2.41,4.96-4.77,7.4-7.19,4.03-4,7.99-8.07,12.07-12.01,1.14-1.1,1.43-2.13,1.1-3.65-2.03-9.33-3.97-18.67-5.92-28.02-.21-1.01-.37-2.05-.36-3.08.04-2.18,1.5-3.86,3.54-4.28,2.18-.45,4.28.5,5.17,2.52.47,1.06.71,2.24.96,3.38,1.52,7.1,3.01,14.21,4.51,21.32.12.59.31,1.16.54,2.02.72-.65,1.25-1.08,1.72-1.55,6.86-6.85,13.7-13.71,20.58-20.53.97-.96,1.35-1.82,1.03-3.27-2.13-9.73-4.13-19.49-6.19-29.23-.46-2.18-.25-4.18,1.67-5.6,1.58-1.17,3.54-1.52,5.01-.23,1.2,1.05,2.22,2.69,2.58,4.24,1.7,7.27,3.14,14.61,4.68,21.92.16.74.34,1.47.59,2.54.67-.59,1.2-.99,1.66-1.45,6.86-6.84,13.69-13.72,20.59-20.52,1.13-1.11,1.42-2.16,1.09-3.68-2.02-9.33-3.97-18.67-5.94-28.01-.1-.47-.18-.95-.26-1.43-.48-3.05.89-5.39,3.49-5.94,2.72-.57,5.02,1.01,5.73,4.1.78,3.37,1.43,6.77,2.14,10.15.88,4.2,1.75,8.4,2.64,12.59.15.72.37,1.42.66,2.47.86-.81,1.47-1.34,2.04-1.92,7.2-7.19,14.4-14.38,21.6-21.58.39-.39.77-.79,1.18-1.17,2.43-2.27,5.23-2.45,7.18-.46,1.94,1.98,1.77,4.81-.59,7.18-7.51,7.56-15.07,15.08-22.61,22.62-.58.58-1.13,1.18-2,2.1,1.28.34,2.22.62,3.18.83,7.24,1.54,14.48,3.06,21.73,4.58,2.19.46,3.91,1.49,4.41,3.83.73,3.43-2.16,6.2-5.79,5.47-7.19-1.44-14.36-2.98-21.53-4.49-2.78-.58-5.53-1.27-8.33-1.71-.89-.14-2.19.05-2.78.62-7.32,7.17-14.54,14.44-21.78,21.68-.23.23-.38.53-.77,1.09Z"/>
        <path class="cls-1" d="M209.14,73.94c-.5,2.13-1.07,4.97-1.84,7.77-6.35,23.14-17.3,43.91-32.47,62.46-12.15,14.87-26.42,27.32-42.94,37.15-2.74,1.63-5.03,1.5-6.76-.42-1.72-1.91-1.67-4.54.21-6.31.75-.7,1.64-1.27,2.52-1.81,32.81-20.22,55.11-48.83,67.81-85.06,1.6-4.56,2.62-9.31,3.91-13.97.22-.8.41-1.61.72-2.38.88-2.17,2.89-3.36,4.89-2.96,2.5.5,3.97,2.29,3.95,5.54Z"/>
      </g>
    </g>
  </g>
</svg>