<?xml version="1.0" encoding="UTF-8"?>
<svg id="katman_2" xmlns="http://www.w3.org/2000/svg" viewBox="0 0 197.57 269.9">
  <defs>
    <style>
      .cls-1 {
        fill: #fff;
      }
    </style>
  </defs>
  <g id="katman_1">
    <g id="wsq1KL">
      <path class="cls-1" d="M163.69,0c4.11,1.32,8.05,2.91,10.98,6.34.3.35,1.28.27,1.91.18,9.24-1.26,17.45,3.62,20.14,12.01,2.68,8.34-1.1,17.31-9.25,21.6-6.37,3.35-12.69,6.84-19.29,9.68-3.99,1.72-4.97,4.7-5.68,8.54.89.08,1.64.2,2.38.2,4.04.02,8.08.08,12.12-.01,3.58-.08,6.44,1.17,8.06,4.4,1.65,3.3.99,6.43-1.24,9.35-4.9,6.42-9.74,12.9-14.6,19.35-17.44,23.15-34.74,46.41-52.47,69.34-3.08,3.99-4.13,7.72-4.08,12.52.19,20.03.11,40.06.03,60.1,0,2.12.63,3.27,2.56,4.23,12.96,6.46,25.85,13.06,38.76,19.61.7.36,1.42.7,2.1,1.1,2.55,1.51,3.75,4.1,3.13,6.65-.67,2.74-2.91,4.59-5.97,4.65-4.3.09-8.61.03-12.91.03-24.6,0-49.2,0-73.8,0-.88,0-1.76.04-2.63-.05-2.84-.31-4.89-2.21-5.44-4.95-.48-2.38.66-4.86,3.01-6.21,1.75-1,3.58-1.86,5.38-2.78,11.9-6.03,23.77-12.11,35.71-18.05,1.94-.96,2.56-2.13,2.55-4.26-.07-21.7-.06-43.4-.02-65.1,0-1.85-.19-3.39-1.88-4.55-.83-.57-1.38-1.57-2.02-2.41-16.81-22.31-33.63-44.61-50.39-66.95-1.22-1.62-2.13-1.83-4.05-1.03-12.71,5.35-24.73,3.92-35.18-5.14C1.07,79.25-2.38,67.35,1.61,54.05c3.99-13.3,13.51-21.15,27.25-23.25,16.4-2.5,32.2,8.33,36.16,24.61.63,2.6,1.66,3.44,4.18,3.19,2-.2,4.04-.06,6.06-.04,3.05.03,4.66,1.33,4.7,3.75.04,2.49-1.66,3.96-4.82,3.97-9.23.03-18.45.01-27.68.01-2.51,0-5.02,0-7.98,0,.6,1,.89,1.59,1.28,2.12,4.64,6.18,9.33,12.33,13.91,18.55,1,1.36,2.08,1.81,3.74,1.78,27.93-.43,55.87-.79,83.8-1.23.89-.01,2.34-.47,2.55-1.07,2.31-6.52,4.42-13.1,6.74-20.15-1.41,0-2.42,0-3.42,0-17.13,0-34.27,0-51.4-.01-1.04,0-2.13-.02-3.12-.32-1.94-.58-3.12-2.17-2.48-4.01.46-1.32,1.93-2.41,3.18-3.28.6-.42,1.71-.11,2.59-.11,18.1,0,36.2-.04,54.3.05,2.24.01,2.99-.81,3.87-2.78,1.97-4.39,1.6-8.16-.88-12.3-3.1-5.18-5.42-10.83-8.33-16.13-6.51-11.87.65-25.1,11.95-26.97.23-.04.42-.29.63-.44,1.76,0,3.52,0,5.27,0ZM157,95.03c-32,.49-63.19.96-95.09,1.45,15.85,21.04,31.29,41.53,47,62.39,16.06-21.31,31.83-42.25,48.09-63.83ZM57.61,58.57c-.68-9.21-9.7-18.06-20.08-19.99-10.96-2.04-22.34,3.85-27.24,14.1-4.93,10.31-2.25,22.67,6.52,30.14,7.61,6.49,20.3,7.98,27.34,3.1-.54-.77-1.05-1.57-1.62-2.32-2.95-3.93-5.92-7.85-8.87-11.78-2.09-2.78-2.49-5.81-.91-8.9,1.53-3.01,4.15-4.39,7.54-4.35,2.63.03,5.27,0,7.9,0,3.13,0,6.27,0,9.41,0ZM162.89,43.99c7.52-3.84,14.76-7.36,21.83-11.21,4.56-2.49,6.29-8.28,4.29-12.8-2.07-4.68-7.2-6.98-12.28-5.49-4.07,1.19-4.89.92-7.59-2.53-3.31-4.23-8.65-5.34-13.14-2.72-4.22,2.45-6.28,7.98-4.15,12.58,3.42,7.38,7.23,14.58,11.04,22.17ZM145.19,261.98c-.7-.58-.88-.79-1.11-.9-11.26-5.72-22.5-11.46-33.81-17.09-.82-.41-2.25-.26-3.12.18-10.9,5.45-21.76,10.99-32.62,16.52-.55.28-1.03.69-1.9,1.29h72.56ZM152.85,87.21c2.9,0,5.43.19,7.9-.08,1.2-.13,2.68-.81,3.41-1.74,4.29-5.43,8.39-11,12.55-16.53.5-.67.93-1.39,1.69-2.55-6.23,0-11.97-.05-17.71.08-.55.01-1.34.99-1.58,1.67-1.19,3.29-2.23,6.63-3.31,9.96-.96,2.96-1.9,5.93-2.94,9.19Z"/>
    </g>
  </g>
</svg>