<?xml version="1.0" encoding="UTF-8"?>
<svg id="katman_2" xmlns="http://www.w3.org/2000/svg" viewBox="0 0 247.39 244.37">
  <defs>
    <style>
      .cls-1 {
        fill: #fff;
      }
    </style>
  </defs>
  <g id="katman_1">
    <g id="CIniI6">
      <g>
        <path class="cls-1" d="M171.77,158.98c0-25.53,0-51.05,0-76.58,0-1.68-.02-3.29,1.48-4.47,1.48-1.16,3.16-1.12,4.09.52.61,1.08.94,2.42,1.05,3.68.17,1.98.05,4,.05,6,0,47.47,0,94.93,0,142.4,0,.41,0,.83,0,1.24.05,3.03.57,3.57,3.55,3.58,4.43.01,8.86,0,13.29,0,3.1,0,3.51-.42,3.51-3.74,0-26.98,0-53.95.03-80.93,0-1.33.26-2.73.72-3.97.57-1.54,2.03-2.32,3.39-1.64,1.08.54,1.92,1.86,2.57,3.02.35.62.13,1.62.13,2.44,0,26.7,0,53.4,0,80.1,0,.83.01,1.66.05,2.48.06,1.4.78,2.19,2.13,2.2,5.29.02,10.58.02,15.87,0,1.7,0,2.52-.99,2.52-2.76,0-.69.02-1.38.02-2.07,0-49.19,0-98.38,0-147.57,0-1.03-.02-2.1.23-3.08.43-1.68,1.48-2.92,3.28-2.63,1.62.26,2.78,1.35,2.88,3.19.1,1.65.02,3.31.02,4.96,0,21.59-.02,43.19.04,64.78,0,1.23.69,2.47,1.06,3.7,1.19-.61,2.54-1.01,3.53-1.87,1.82-1.59,2.9-3.73,3.03-6.28.06-1.31.18-2.62.18-3.92.01-21.04.03-42.08-.01-63.13,0-3.28.21-6.63-1.74-9.59-2.04-3.09-4.56-5.67-7.96-6.83-4.3-1.47-8.73-2.53-13.12-3.68-2.49-.65-5.02-1.17-7.54-1.69-7.61-1.56-15.09-.9-22.5,1.39-3.03.94-6.21,1.31-9.23,2.27-5.47,1.74-10.47,4.34-13.16,10.05-.59,1.25-.93,2.75-.95,4.14-.12,6.62-.11,13.24-.11,19.87-.01,13.94.21,27.88-.07,41.81-.25,12.42-4.87,22.85-14.52,30.51-1.7,1.35-2.28,2.96-2.28,5.15.06,21.32.02,42.64.06,63.95,0,2.6-.48,4.84-2.87,6.09-.85.44-1.87.72-2.82.72-9.45.05-18.91.07-28.36.02-3.25-.02-5.36-1.73-5.33-6.11.08-12.07.03-24.15.03-36.22,0-9.11-.03-18.21.03-27.32.02-2.38-.58-4.14-2.52-5.66-5.17-4.02-8.66-9.43-10.68-15.78-1.3-4.09-2.17-8.33-3.29-12.48-1.33-4.96-2.71-9.91-4.08-14.86-.68-2.44-1.43-4.86-2.07-7.32-1.32-5.1-2.53-10.24-3.9-15.33-1.34-4.96-2.89-9.85-4.23-14.81-1.4-5.15-2.51-10.4-4.06-15.51-.98-3.22-.87-7.17-4.39-9.06-2.17-1.16-4.33-2.37-6.61-3.26-4.76-1.87-9.57-3.24-14.82-3.18-4.74.05-8.92,1.74-13.15,3.43-2.87,1.15-5.52,2.91-8.39,4.09-3.19,1.31-4.04,4.2-4.83,7.1-1.66,6.08-3.19,12.2-4.68,18.32-.81,3.33-1.42,6.71-2.14,10.06-.88,4.09-1.79,8.17-2.68,12.26-.66,3.02-1.37,6.02-1.98,9.05-.9,4.44-1.78,8.89-2.56,13.36-.75,4.31,2.56,8.62,6.7,8.74.61.02,1.4-.48,1.8-1,.47-.61.73-1.47.86-2.27.76-4.47,1.38-8.97,2.18-13.43.79-4.39,1.75-8.75,2.6-13.13.66-3.44,1.31-6.88,1.89-10.34.75-4.47,1.38-8.96,2.13-13.44.58-3.45,1.19-6.91,1.91-10.33.53-2.51,2.46-3.75,4.52-3.13,1.72.52,2.54,2.71,2.1,4.95-1.02,5.19-1.9,10.4-2.87,15.6-.83,4.46-1.71,8.91-2.56,13.36-.66,3.44-1.35,6.87-1.95,10.32-.76,4.4-1.39,8.83-2.17,13.23-.79,4.46-1.7,8.9-2.56,13.35-.65,3.37-1.33,6.74-1.92,10.12-.76,4.33-1.41,8.68-2.16,13.02-.75,4.33-1.5,8.66-2.4,12.96-.36,1.71.17,2.53,1.71,2.76.78.12,1.58.12,2.37.12,19.77,0,39.54,0,59.31,0,.53,0,1.06,0,1.59-.03,2.62-.17,2.95-.87,2.27-3.56-.72-2.85-1.18-5.78-1.73-8.68-.78-4.12-1.51-8.24-2.32-12.35-.82-4.18-1.71-8.34-2.56-12.5-.73-3.56-1.48-7.12-2.19-10.69-1.59-8.01-3.18-16.02-4.72-24.04-.8-4.18-1.45-8.39-2.27-12.57-.79-4.04-1.72-8.05-2.55-12.09-.65-3.16-1.3-6.32-1.84-9.5-.3-1.72,1.05-3.57,2.59-3.84,2-.34,3.69.85,4.19,3.15.68,3.15,1.22,6.33,1.84,9.5.43,2.22.92,4.43,1.33,6.66.74,3.98,1.41,7.98,2.18,11.96.84,4.31,1.78,8.6,2.66,12.9.59,2.89,1.2,5.78,1.75,8.68.78,4.11,1.48,8.25,2.28,12.36.8,4.11,1.68,8.2,2.52,12.31.74,3.63,1.49,7.26,2.21,10.9,1.61,8.08,3.2,16.16,4.8,24.24.09.47.21.94.26,1.42.27,2.3-.18,2.86-2.39,2.87-4.3.01-8.6,0-12.89,0-2.68,0-3.25.5-3.77,3.17-.18.95-.37,1.9-.46,2.86-.72,7.68-1.39,15.37-2.14,23.04-.64,6.58-1.34,13.16-2.1,19.72-.33,2.89-.98,3.37-3.72,3.38-9.72,0-19.44-.05-29.16.04-2,.02-2.94-.79-3.2-2.76-.13-1.02-.43-2.03-.53-3.05-.75-7.89-1.45-15.78-2.21-23.66-.63-6.51-1.3-13.02-2.02-19.52-.28-2.46-1.13-3.18-3.56-3.2-4.5-.04-8.99,0-13.49-.02-2.11,0-2.62-.63-2.2-2.77,1.44-7.41,2.97-14.8,4.34-22.23.93-5.07,1.62-10.18,2.45-15.27.27-1.65-.45-2.36-1.9-2.8-3.19-.96-6.21-2.28-8.5-4.97-3.16-3.72-3.86-8.07-2.91-12.75.71-3.49,1.75-6.91,2.5-10.39.81-3.76,1.38-7.57,2.17-11.33.8-3.83,1.74-7.62,2.61-11.43.64-2.81,1.31-5.61,1.92-8.43.73-3.35,1.26-6.76,2.15-10.06,1.59-5.88,3.24-11.75,5.21-17.5.51-1.49,2.15-2.87,3.59-3.66,3.95-2.17,8.04-4.08,12.15-5.92,1.8-.81,2.16-1.4.83-2.92-1.29-1.47-2.83-2.7-4.12-4.17-3.58-4.06-5.86-8.76-6.29-14.35-.42-5.43-.31-10.78,2.05-15.77,2.26-4.78,5.53-8.64,9.94-11.49C41.12.04,47.73-.73,54.38.61c7.01,1.42,12.68,5.44,16.61,11.97,4.31,7.15,4.78,14.84,2.95,22.69-1.2,5.17-4.13,9.51-8.15,12.91-3.57,3.02-3.6,3.03.31,5.14,2.16,1.17,4.4,2.17,6.56,3.35,4.35,2.36,5.34,6.83,6.48,11.25,1.43,5.57,2.99,11.1,4.5,16.64.65,2.38,1.32,4.75,1.95,7.13,1.86,7.09,3.65,14.21,5.56,21.28,1.37,5.09,2.99,10.11,4.33,15.21,1.34,5.1,2.47,10.26,3.68,15.4,2.24,9.44,6.7,17.24,15.41,21.55,2.51,1.24,5.41,1.71,8.18,2.23,1.8.33,3.69.1,5.54.13,8.97.16,16.02-3.99,21.79-10.76,4.89-5.74,7.15-12.55,7.13-20.26-.06-19.46-.03-38.91-.01-58.37.01-10.95,4.75-18.09,14.36-22.21,3.62-1.55,7.52-2.38,11.3-3.54.51-.15,1.1-.15,1.52-.43.8-.52,1.79-1.07,2.12-1.86.17-.41-.79-1.51-1.42-2.09-5.79-5.3-8.7-11.96-8.86-19.98-.17-8.56,2.54-15.92,8.87-21.41,7.68-6.66,16.45-8.15,25.99-4.93,6.52,2.2,11.19,6.67,14.39,12.79,2.39,4.57,3.12,9.61,2.8,14.8-.49,7.92-3.63,14.4-9.68,19.31-1.14.93-.97,2.27.34,3.01.63.35,1.36.61,2.06.68,4.58.48,8.94,1.79,13.07,3.84,5.94,2.95,10.52,7.17,12.25,14.21.77,3.16,1.08,6.21,1.05,9.5-.19,19.94-.28,39.88.04,59.81.08,5.16-.61,9.81-2.94,14.22-2.05,3.88-5.39,6.21-9.39,7.38-1.75.51-2.4,1.45-2.4,3.19,0,4.21-.03,8.42-.03,12.62,0,19.73.02,39.46.04,59.19,0,3.88-1.7,5.82-5.54,5.96-3.3.13-6.61.05-9.92.05-12.69,0-25.39.02-38.08-.02-1.43,0-2.9-.22-4.29-.6-1.76-.49-2.65-1.96-2.97-3.77-.13-.74-.09-1.51-.09-2.27,0-25.53,0-51.05,0-76.58ZM140.46,204.24c0-9.1,0-18.21,0-27.31,0-.76,0-1.52-.1-2.27-.2-1.33-.93-1.92-2.25-1.58-6.51,1.66-13.03,1.81-19.65.58-4.01-.74-4.17-.4-4.17,3.78,0,17.73,0,35.45,0,53.18,0,5.1.01,5.11,4.81,5.12,5.06,0,5.12-.06,5.12-5.27,0-5.17-.03-10.35.02-15.52.01-1.58.05-3.26,1.74-4.07,2.46-1.18,4.85.42,4.89,3.35.06,5.1.03,10.21.01,15.31-.02,6.65-.34,6.22,5.88,6.21,3.33,0,3.7-.41,3.7-3.98,0-9.17,0-18.35,0-27.52ZM221.79,27.32c.4-11.09-9.39-20.56-19.41-20.57-10.56-.01-19.95,9.43-19.78,20.92.15,10.14,8.5,20,19.71,20.05,10.57.04,19.92-9.95,19.48-20.39ZM68.36,27.26c.33-11.35-9.5-20.59-19.62-20.52-10.3.08-19.64,9.63-19.53,20.77.1,10.46,8.87,20.21,19.76,20.21,10.68,0,19.95-10.21,19.39-20.47ZM48.86,192.66h0c-4.56,0-9.12.03-13.69,0-1.82-.01-2.73.81-2.6,2.75.08,1.24.14,2.48.27,3.71,1.08,10.41,2.22,20.82,3.25,31.23.67,6.75,1.23,7.32,7.66,6.89,2.21-.15,2.74-.7,2.76-3.09.03-5.73,0-11.45.01-17.18,0-.96-.25-2.15.18-2.84.7-1.1,1.78-2.39,2.88-2.62.84-.17,2.12,1.04,2.9,1.93.43.49.29,1.58.29,2.4.02,5.66,0,11.31,0,16.97,0,4,.48,4.49,4.35,4.45.26,0,.53-.01.79-.01,1.89.02,3.02-.91,3.2-2.9.23-2.47.32-4.95.59-7.42.91-8.21,1.88-16.42,2.79-24.63.24-2.19.41-4.4.5-6.6.1-2.53-.39-3.02-2.86-3.04-4.43-.03-8.86,0-13.29,0Z"/>
        <path class="cls-1" d="M144.77,142.64c.23,11.25-8.31,18.4-17.27,18.32-9.83-.09-17.54-7.67-17.43-18.46.11-10.28,7.44-18,17.47-17.99,9.23,0,17.41,7.21,17.23,18.13ZM127.4,153.81c6.07.04,10.84-4.86,11.01-11.02.14-5.06-4.7-11.4-10.86-11.3-6.33.1-10.9,5.47-10.88,11.26.02,5.9,4.63,11.37,10.73,11.07Z"/>
      </g>
    </g>
  </g>
</svg>