<?xml version="1.0" encoding="UTF-8"?>
<svg id="katman_2" xmlns="http://www.w3.org/2000/svg" viewBox="0 0 164.2 80.89">
  <defs>
    <style>
      .cls-1 {
        fill: #33b3a6;
      }
    </style>
  </defs>
  <g id="katman_1">
    <g>
      <path class="cls-1" d="M23.77,78.58v-5.42c0-2.01-1.87-3.87-4.31-3.87l-3.2,4.06v-4.06c-.97,1.13-4.38.69-4.38.69.88.51,1.15,1.06,1.15,1.98v6.62c0,.51-.09.91-.31,1.24-.29-.34-.46-.74-.64-1.24l-4.77-13.19c-1.5,1.54-4.17,1.13-4.17,1.13.69.58.95,1.06,1.2,1.71-3.64,3-5.53,8.62-3.5,12.33h4.96c-1.24-.76-2.37-2.63-2.9-4.7h4.22l.99,2.72c.35.92.02,1.48-.67,1.98h9.98c-.88-.51-1.15-1.06-1.15-1.98v-4.43l1.96-2.49c1.22,0,2.33.81,2.33,2.63v4.29c0,.92-.3,1.48-1.15,1.98h5.53c-.88-.51-1.15-1.06-1.15-1.98ZM2.79,75.35c-.51-2.44-.16-5.09,1.75-6.55l2.37,6.55H2.79Z"/>
      <path class="cls-1" d="M35.18,76.65s-.3-2.9-.37-3.57c-.32-3.09-2.95-3.78-6.16-3.78-1.15,0-2.4.58-3.09,1.29-1.08,1.08-.88,2.44,2.93,2.44-1.01-.53-.62-3.23.51-3.23,1.2,0,2.33,1.48,2.58,3.39-3.11-.14-7.12,1.89-7.12,4.56,0,1.89,2.05,2.81,5.19,2.81l2.4-3.02v.05c.16,1.54.97,2.97,2.97,2.97l1.82-2.05c-1.06.39-1.48-.09-1.66-1.87ZM30.68,78.37c-2.84.09-4.77-4.5.95-4.68.09.71.23,2.19.32,3.11l-1.27,1.57Z"/>
      <path class="cls-1" d="M40.34,76.65v-6.82h2.44l.16-.53h-2.6v-3.25s-1.64,2.37-4.47,3.25l-.16.53h1.43v7.77c0,1.54.9,2.97,3.25,2.97l2.4-2.05c-1.43.3-2.44.02-2.44-1.87Z"/>
      <path class="cls-1" d="M48.04,69.08c-3.18,0-5.76,2.63-5.76,5.86s2.58,5.83,5.76,5.83,5.79-2.63,5.79-5.83-2.58-5.86-5.79-5.86ZM49.96,75.56c-.99,2.79-2.65,4.75-3.71,4.4-1.04-.37-1.08-2.9-.09-5.67.99-2.79,2.65-4.75,3.69-4.4,1.06.37,1.11,2.9.12,5.67Z"/>
      <path class="cls-1" d="M61.35,68.99c.99,0,1.8-.81,1.8-1.8s-.81-1.8-1.8-1.8-1.8.81-1.8,1.8.81,1.8,1.8,1.8Z"/>
      <path class="cls-1" d="M63.15,78.58v-9.29c-.97,1.13-4.38.69-4.38.69.88.51,1.15,1.06,1.15,1.98v6.62c0,.86-.24,1.4-.98,1.88-.74-.48-.98-1.02-.98-1.88v-13.19c-.97,1.13-4.38.69-4.38.69.88.51,1.15,1.06,1.15,1.98v10.51c0,.92-.28,1.48-1.15,1.98h10.72c-.88-.51-1.15-1.06-1.15-1.98Z"/>
      <path class="cls-1" d="M74.51,76.65s-.3-2.9-.37-3.57c-.32-3.09-2.95-3.78-6.16-3.78-1.15,0-2.4.58-3.09,1.29-1.08,1.08-.88,2.44,2.93,2.44-1.01-.53-.62-3.23.51-3.23,1.2,0,2.33,1.48,2.58,3.39-3.11-.14-7.12,1.89-7.12,4.56,0,1.89,2.05,2.81,5.19,2.81l2.4-3.02v.05c.16,1.54.97,2.97,2.97,2.97l1.82-2.05c-1.06.39-1.48-.09-1.66-1.87ZM70.02,78.37c-2.84.09-4.77-4.5.95-4.68.09.71.23,2.19.32,3.11l-1.27,1.57Z"/>
      <path class="cls-1" d="M87.54,78.58v-5.42c0-2.01-1.87-3.87-4.31-3.87l-3.2,4.06v-4.06c-.97,1.13-4.38.69-4.38.69.88.51,1.15,1.06,1.15,1.98v6.62c0,.92-.28,1.48-1.15,1.98h5.53c-.88-.51-1.15-1.06-1.15-1.98v-4.43l1.96-2.49c1.22,0,2.33.81,2.33,2.63v4.29c0,.92-.3,1.48-1.15,1.98h5.53c-.88-.51-1.15-1.06-1.15-1.98Z"/>
      <path class="cls-1" d="M117.69,76.65v-7.35c-.97,1.13-3.92.69-3.92.69,0,0,.69.51.69,1.98v3.73l-1.96,2.49c-1.22,0-2.33-.81-2.33-2.63v-6.27c-.8.96-3.07.79-3.73.71,1.42-2-.17-4.93-5.63-4.93-3.97,0-7.19,3.55-7.19,7.91s3.23,7.91,7.19,7.91c2.4,0,4.96-1.01,5.51-3.14l-4.15-2.7c.81,1.61.42,5.42-1.36,5.42-5.42,0-2.05-14.89.99-14.89,1.06,0,1.73,4.17.6,6.25,1.92-.11,3.27-.81,3.97-1.73.2.22.59.78.59,1.87v4.73c0,2.01,1.84,3.87,4.29,3.87l3.2-4.06v1.08c0,1.54.6,2.97,2.97,2.97l1.82-2.05c-1.43.3-1.57.02-1.57-1.87Z"/>
      <path class="cls-1" d="M123.2,78.58v-13.19c-.97,1.13-4.38.69-4.38.69.88.51,1.15,1.06,1.15,1.98v10.51c0,.92-.28,1.48-1.15,1.98h5.53c-.88-.51-1.15-1.06-1.15-1.98Z"/>
      <path class="cls-1" d="M128.55,66.04s-1.64,2.37-4.47,3.25l-.16.53h1.43v7.77c0,1.54.9,2.97,3.25,2.97l2.4-2.05c-1.43.3-2.44.02-2.44-1.87v-6.82h2.44l.16-.53h-2.61v-3.25Z"/>
      <path class="cls-1" d="M142.73,76.65v-7.35c-.97,1.13-3.92.69-3.92.69,0,0,.69.51.69,1.98v3.73l-1.96,2.49c-1.22,0-2.33-.81-2.33-2.63v-6.27c-.95,1.13-3.92.69-3.92.69,0,0,.71.51.71,1.98v4.73c0,2.01,1.84,3.87,4.29,3.87l3.2-4.06v1.08c0,1.54.6,2.97,2.97,2.97l1.82-2.05c-1.43.3-1.57.02-1.57-1.87Z"/>
      <path class="cls-1" d="M152.83,69.29c-1.34,0-2.95,1.73-3.73,2.65l-.65.74v-3.39c-.97,1.13-4.38.69-4.38.69.88.51,1.15,1.06,1.15,1.98v6.62c0,.92-.28,1.48-1.15,1.98h5.53c-.88-.51-1.15-1.06-1.15-1.98v-5.12l.37-.44c1.54-1.75,3.16-.58,3.92,1.04,0,0,.37-1.8,1.98-3.8,0,0-.78-.97-1.89-.97Z"/>
      <path class="cls-1" d="M164.05,74.73c-2.19,4.15-8.11,2.88-8.41-1.96h8.44c-.46-2.4-1.75-3.71-4.17-3.71-3.39,0-6.11,2.63-6.11,5.88s2.72,5.86,6.11,5.86c2.88,0,4.86-2.72,4.15-6.06ZM157.58,70.17c1.2-.28,1.94.85,2.47,2.1h-4.43c.07-1.01,1.08-1.91,1.96-2.1Z"/>
    </g>
    <g>
      <path class="cls-1" d="M81.38,0c-15.12,0-27.43,12.3-27.43,27.43s12.3,27.43,27.43,27.43,27.43-12.3,27.43-27.43S96.51,0,81.38,0ZM96.86,30.12c.18.25.47.42.77.46l6.97,1.04c-.26,1.42-.64,2.82-1.16,4.17l-6.67-3.17c-.16-.07-.33-.11-.5-.11-.14,0-.27.02-.4.07-.29.11-.54.33-.67.62,0,0-.07.15-.08.17-.13.28-.15.61-.05.9.1.3.32.53.6.67l6.73,3.19c-1.53,3-3.72,5.67-6.36,7.77l-4.33-6.22c-.18-.26-.46-.43-.76-.48-.07-.01-.13-.02-.2-.02-.25,0-.48.08-.69.22-.05.04-.1.08-.16.11-.53.37-.66,1.1-.29,1.63l4.34,6.24c-2,1.27-4.17,2.21-6.45,2.82l-1.53-7.61c-.06-.31-.25-.58-.51-.75-.19-.13-.41-.19-.64-.19-.08,0-.17,0-.25.03,0,0-.15.03-.19.04-.31.06-.57.24-.75.5-.17.26-.23.57-.17.88l1.53,7.63c-1.19.18-2.41.28-3.61.28-4.84,0-9.5-1.46-13.46-4.22-3.72-2.59-6.59-6.15-8.32-10.32l7.58-2.78c.3-.11.53-.33.66-.62.13-.28.14-.61.03-.91,0,0-.06-.14-.07-.18-.11-.29-.33-.53-.61-.66-.15-.07-.32-.11-.49-.11-.14,0-.27.02-.4.07l-7.55,2.77c-.63-2.15-.95-4.38-.95-6.64,0-2.72.46-5.39,1.37-7.93l8.94,3.53c.14.05.28.08.43.08.16,0,.32-.03.47-.1.28-.12.51-.36.63-.66.02-.06.05-.12.07-.17.12-.29.11-.62,0-.9-.12-.29-.36-.51-.65-.63l-8.89-3.51c2.39-4.92,6.4-8.85,11.37-11.14l3.52,8.67c.12.29.34.52.63.64.14.06.3.09.45.09s.3-.03.44-.09c.05-.02.18-.07.18-.07.29-.11.53-.34.65-.63.12-.29.13-.62,0-.9l-3.51-8.65c2.41-.81,4.92-1.21,7.49-1.21.18,0,.36,0,.54,0l-.74,9.32c-.05.64.43,1.21,1.08,1.26,0,0,.16.01.19.01.04,0,.08,0,.11,0,.27,0,.54-.1.75-.27.24-.2.39-.49.41-.8l.74-9.33c2.75.36,5.38,1.19,7.84,2.48l-4.9,8.11c-.33.55-.16,1.27.39,1.61.03.02.05.03.08.05l.08.05c.19.12.41.18.63.18.09,0,.18-.01.27-.03.31-.07.57-.27.74-.54l4.91-8.13c6.56,4.4,10.46,11.68,10.46,19.6,0,.54-.02,1.1-.06,1.66l-6.91-1.03c-.06,0-.12-.01-.17-.01-.25,0-.5.08-.7.23-.25.19-.42.47-.46.78v.1s-.02.06-.03.09c-.05.31.03.62.21.87Z"/>
      <path class="cls-1" d="M78.05,25.35c-.16-.27-.43-.46-.73-.54-.09-.02-.18-.03-.28-.03-.13,0-.27.02-.39.07-.08.03-.15.06-.23.11,0,0-.13.08-.17.1-.27.16-.46.42-.53.72-.08.3-.03.62.13.89l4.1,6.84c.16.27.42.46.72.53.09.02.19.04.28.04.13,0,.27-.02.39-.07.07-.03.14-.06.21-.1l.19-.11c.55-.33.73-1.05.4-1.61l-4.11-6.85Z"/>
      <path class="cls-1" d="M84.55,21.22c-.16-.27-.43-.46-.73-.54-.09-.02-.18-.03-.28-.03-.13,0-.27.02-.39.07-.08.03-.15.06-.23.11,0,0-.13.08-.17.1-.27.16-.46.42-.53.72-.08.3-.03.62.13.89l4.1,6.84c.16.27.42.46.72.53.09.02.19.04.29.04.13,0,.27-.02.39-.07.07-.03.14-.06.21-.1l.18-.11c.55-.33.73-1.05.4-1.61l-4.1-6.85Z"/>
    </g>
  </g>
</svg>