<?xml version="1.0" encoding="UTF-8"?>
<svg id="katman_2" xmlns="http://www.w3.org/2000/svg" viewBox="0 0 273.93 133.32">
  <defs>
    <style>
      .cls-1 {
        fill: #e21a2e;
      }
    </style>
  </defs>
  <g id="katman_1">
    <g>
      <g>
        <path class="cls-1" d="M39.65,129.48v-9.04c0-3.35-3.12-6.46-7.19-6.46l-5.35,6.77v-6.77c-1.62,1.88-7.31,1.15-7.31,1.15,1.46.85,1.92,1.77,1.92,3.31v11.04c0,.85-.14,1.51-.51,2.08-.49-.57-.77-1.23-1.06-2.08l-7.96-22c-2.5,2.58-6.96,1.88-6.96,1.88,1.15.96,1.58,1.77,2,2.85-6.08,5-9.23,14.38-5.85,20.58h8.27c-2.08-1.27-3.96-4.38-4.85-7.85h7.04l1.65,4.54c.58,1.54.04,2.46-1.12,3.31h16.65c-1.46-.85-1.92-1.77-1.92-3.31v-7.38l3.27-4.15c2.04,0,3.88,1.35,3.88,4.38v7.15c0,1.54-.5,2.46-1.92,3.31h9.23c-1.46-.85-1.92-1.77-1.92-3.31ZM4.65,124.09c-.85-4.08-.27-8.5,2.92-10.92l3.96,10.92h-6.88Z"/>
        <path class="cls-1" d="M58.69,126.25s-.5-4.85-.62-5.96c-.54-5.15-4.92-6.31-10.27-6.31-1.92,0-4,.96-5.15,2.15-1.81,1.81-1.46,4.08,4.88,4.08-1.69-.88-1.04-5.38.85-5.38,2,0,3.88,2.46,4.31,5.65-5.19-.23-11.88,3.15-11.88,7.62,0,3.15,3.42,4.69,8.65,4.69l4-5.04v.08c.27,2.58,1.62,4.96,4.96,4.96l3.04-3.42c-1.77.65-2.46-.15-2.77-3.12ZM51.19,129.13c-4.73.15-7.96-7.5,1.58-7.81.15,1.19.38,3.65.54,5.19l-2.12,2.62Z"/>
        <path class="cls-1" d="M67.31,126.25v-11.38h4.08l.27-.88h-4.35v-5.42s-2.73,3.96-7.46,5.42l-.27.88h2.38v12.96c0,2.58,1.5,4.96,5.42,4.96l4-3.42c-2.38.5-4.08.04-4.08-3.12Z"/>
        <path class="cls-1" d="M80.15,113.63c-5.31,0-9.61,4.38-9.61,9.77s4.31,9.73,9.61,9.73,9.65-4.38,9.65-9.73-4.31-9.77-9.65-9.77ZM83.34,124.44c-1.65,4.65-4.42,7.92-6.19,7.35-1.73-.62-1.81-4.85-.15-9.46,1.65-4.65,4.42-7.92,6.15-7.35,1.77.62,1.85,4.85.19,9.46Z"/>
        <path class="cls-1" d="M102.34,113.48c1.65,0,3-1.35,3-3s-1.35-3-3-3-3,1.35-3,3,1.35,3,3,3Z"/>
        <path class="cls-1" d="M105.34,129.48v-15.5c-1.62,1.88-7.31,1.15-7.31,1.15,1.46.85,1.92,1.77,1.92,3.31v11.04c0,1.43-.4,2.33-1.63,3.13-1.23-.8-1.63-1.7-1.63-3.13v-22c-1.62,1.88-7.31,1.15-7.31,1.15,1.46.85,1.92,1.77,1.92,3.31v17.54c0,1.54-.46,2.46-1.92,3.31h17.88c-1.46-.85-1.92-1.77-1.92-3.31Z"/>
        <path class="cls-1" d="M124.31,126.25s-.5-4.85-.62-5.96c-.54-5.15-4.92-6.31-10.27-6.31-1.92,0-4,.96-5.15,2.15-1.81,1.81-1.46,4.08,4.88,4.08-1.69-.88-1.04-5.38.85-5.38,2,0,3.88,2.46,4.31,5.65-5.19-.23-11.88,3.15-11.88,7.62,0,3.15,3.42,4.69,8.65,4.69l4-5.04v.08c.27,2.58,1.62,4.96,4.96,4.96l3.04-3.42c-1.77.65-2.46-.15-2.77-3.12ZM116.81,129.13c-4.73.15-7.96-7.5,1.58-7.81.15,1.19.38,3.65.54,5.19l-2.12,2.62Z"/>
        <path class="cls-1" d="M146.04,129.48v-9.04c0-3.35-3.12-6.46-7.19-6.46l-5.35,6.77v-6.77c-1.62,1.88-7.31,1.15-7.31,1.15,1.46.85,1.92,1.77,1.92,3.31v11.04c0,1.54-.46,2.46-1.92,3.31h9.23c-1.46-.85-1.92-1.77-1.92-3.31v-7.38l3.27-4.15c2.04,0,3.88,1.35,3.88,4.38v7.15c0,1.54-.5,2.46-1.92,3.31h9.23c-1.46-.85-1.92-1.77-1.92-3.31Z"/>
        <path class="cls-1" d="M196.34,126.25v-12.27c-1.62,1.88-6.54,1.15-6.54,1.15,0,0,1.15.85,1.15,3.31v6.23l-3.27,4.15c-2.04,0-3.88-1.35-3.88-4.38v-10.46c-1.34,1.6-5.12,1.31-6.23,1.19,2.38-3.34-.29-8.23-9.39-8.23-6.62,0-12,5.92-12,13.19s5.38,13.19,12,13.19c4,0,8.27-1.69,9.19-5.23l-6.92-4.5c1.35,2.69.69,9.04-2.27,9.04-9.04,0-3.42-24.84,1.65-24.84,1.77,0,2.88,6.96,1,10.42,3.2-.18,5.45-1.36,6.63-2.89.34.37.99,1.3.99,3.12v7.88c0,3.35,3.08,6.46,7.15,6.46l5.35-6.77v1.81c0,2.58,1,4.96,4.96,4.96l3.04-3.42c-2.38.5-2.62.04-2.62-3.12Z"/>
        <path class="cls-1" d="M205.54,129.48v-22c-1.62,1.88-7.31,1.15-7.31,1.15,1.46.85,1.92,1.77,1.92,3.31v17.54c0,1.54-.46,2.46-1.92,3.31h9.23c-1.46-.85-1.92-1.77-1.92-3.31Z"/>
        <path class="cls-1" d="M214.46,108.56s-2.73,3.96-7.46,5.42l-.27.88h2.38v12.96c0,2.58,1.5,4.96,5.42,4.96l4-3.42c-2.38.5-4.08.04-4.08-3.12v-11.38h4.08l.27-.88h-4.35v-5.42Z"/>
        <path class="cls-1" d="M238.11,126.25v-12.27c-1.62,1.88-6.54,1.15-6.54,1.15,0,0,1.15.85,1.15,3.31v6.23l-3.27,4.15c-2.04,0-3.88-1.35-3.88-4.38v-10.46c-1.58,1.88-6.54,1.15-6.54,1.15,0,0,1.19.85,1.19,3.31v7.88c0,3.35,3.08,6.46,7.15,6.46l5.35-6.77v1.81c0,2.58,1,4.96,4.96,4.96l3.04-3.42c-2.38.5-2.62.04-2.62-3.12Z"/>
        <path class="cls-1" d="M254.96,113.98c-2.23,0-4.92,2.88-6.23,4.42l-1.08,1.23v-5.65c-1.62,1.88-7.31,1.15-7.31,1.15,1.46.85,1.92,1.77,1.92,3.31v11.04c0,1.54-.46,2.46-1.92,3.31h9.23c-1.46-.85-1.92-1.77-1.92-3.31v-8.54l.62-.73c2.58-2.92,5.27-.96,6.54,1.73,0,0,.62-3,3.31-6.35,0,0-1.31-1.62-3.15-1.62Z"/>
        <path class="cls-1" d="M273.69,123.06c-3.65,6.92-13.54,4.81-14.04-3.27h14.08c-.77-4-2.92-6.19-6.96-6.19-5.65,0-10.19,4.38-10.19,9.81s4.54,9.77,10.19,9.77c4.81,0,8.12-4.54,6.92-10.11ZM262.88,115.44c2-.46,3.23,1.42,4.12,3.5h-7.38c.12-1.69,1.81-3.19,3.27-3.5Z"/>
      </g>
      <g>
        <path class="cls-1" d="M130.89,0c-24.34,0-44.14,19.8-44.14,44.14s19.8,44.14,44.14,44.14,44.14-19.8,44.14-44.14S155.22,0,130.89,0ZM155.78,48.47c.3.4.75.67,1.24.75l11.22,1.67c-.41,2.29-1.04,4.54-1.86,6.72l-10.73-5.1c-.25-.12-.53-.18-.81-.18-.22,0-.44.04-.64.11-.47.17-.86.53-1.08.99,0,0-.11.25-.12.28-.22.45-.25.98-.08,1.45.17.48.51.86.97,1.08l10.82,5.14c-2.47,4.83-5.98,9.12-10.24,12.5l-6.97-10.01c-.29-.41-.74-.7-1.23-.78-.1-.02-.21-.03-.32-.03-.4,0-.78.12-1.11.36-.08.06-.17.12-.26.18-.85.59-1.06,1.77-.47,2.62l6.99,10.04c-3.23,2.04-6.71,3.56-10.38,4.54l-2.46-12.25c-.1-.49-.4-.93-.82-1.21-.31-.2-.67-.31-1.03-.31-.13,0-.27.01-.4.04,0,0-.24.05-.31.07-.49.1-.92.38-1.2.8-.28.42-.38.92-.28,1.42l2.47,12.28c-1.92.29-3.87.44-5.82.44-7.8,0-15.29-2.35-21.66-6.78-5.99-4.17-10.61-9.9-13.4-16.6l12.2-4.48c.48-.18.85-.53,1.07-.99.21-.46.22-.99.04-1.46,0,0-.09-.23-.11-.29-.17-.47-.53-.86-.98-1.07-.25-.11-.52-.18-.79-.18-.22,0-.44.04-.65.12l-12.14,4.46c-1.01-3.46-1.53-7.05-1.53-10.69,0-4.38.74-8.67,2.2-12.76l14.39,5.68c.22.09.45.13.69.13.26,0,.52-.05.75-.16.46-.2.82-.58,1.01-1.06.04-.09.07-.19.11-.28.19-.46.18-.99-.01-1.45-.2-.46-.58-.83-1.04-1.01l-14.31-5.64c3.84-7.92,10.29-14.24,18.29-17.93l5.67,13.96c.19.47.55.83,1.02,1.03.23.1.48.15.73.15s.49-.05.71-.14c.08-.03.29-.12.29-.12.47-.18.85-.55,1.05-1.01.2-.46.2-.99.01-1.46l-5.66-13.93c3.87-1.3,7.92-1.95,12.05-1.95.29,0,.57,0,.87.01l-1.19,15.01c-.08,1.04.69,1.95,1.74,2.03,0,0,.25.02.31.02.06,0,.12,0,.18,0,.44,0,.87-.16,1.21-.44.38-.32.63-.79.67-1.29l1.19-15.02c4.43.58,8.66,1.92,12.61,3.99l-7.88,13.05c-.53.88-.25,2.04.63,2.59.04.03.09.05.13.09l.13.08c.3.19.65.29,1.01.29.14,0,.29-.02.43-.05.49-.12.92-.43,1.18-.86l7.9-13.08c10.55,7.08,16.83,18.8,16.83,31.54,0,.88-.03,1.77-.1,2.67l-11.12-1.66c-.09-.01-.19-.02-.28-.02-.41,0-.81.13-1.13.38-.4.3-.67.76-.74,1.26l-.02.16s-.01.1-.02.15c-.08.49.05,1.01.35,1.41Z"/>
        <path class="cls-1" d="M125.52,40.79c-.26-.43-.68-.74-1.17-.86-.15-.04-.3-.05-.45-.05-.22,0-.43.04-.63.11-.12.04-.24.1-.36.18,0,0-.21.13-.27.17-.43.26-.74.67-.86,1.16-.12.49-.05,1,.21,1.43l6.6,11.01c.26.43.67.74,1.16.86.15.04.3.06.46.06.22,0,.43-.04.63-.11.12-.04.23-.09.34-.16l.3-.18c.89-.54,1.18-1.7.65-2.59l-6.61-11.02Z"/>
        <path class="cls-1" d="M135.98,34.15c-.26-.43-.69-.74-1.17-.86-.15-.04-.3-.05-.45-.05-.22,0-.43.04-.63.11-.13.04-.25.1-.37.18,0,0-.21.13-.27.17-.43.26-.74.67-.86,1.16-.12.49-.05,1,.21,1.43l6.6,11.01c.26.43.67.74,1.16.86.15.04.3.06.46.06.22,0,.43-.04.63-.11.12-.04.23-.09.34-.16l.3-.18c.89-.54,1.18-1.7.65-2.59l-6.61-11.02Z"/>
      </g>
    </g>
  </g>
</svg>